<?xml version="1.0" encoding="UTF-8"?>
<svg id="Calque_1" data-name="Calque 1" xmlns="http://www.w3.org/2000/svg" xmlns:xlink="http://www.w3.org/1999/xlink" viewBox="0 0 548.11 358.73">
  <defs>
    <clipPath id="clippath">
      <path d="M518.51,3.92h-131.29c0,4.18-4.2,7.58-9.37,7.58s-9.37-3.39-9.37-7.58H34.28c0,13.52-13.56,24.48-30.28,24.48v15.01c6.75,0,12.22,4.42,12.22,9.88s-5.47,9.88-12.22,9.88v10.55c6.75,0,12.22,4.42,12.22,9.88s-5.47,9.88-12.22,9.88v10.55c6.75,0,12.22,4.42,12.22,9.88s-5.47,9.88-12.22,9.88v15.01c16.72,0,30.28,10.96,30.28,24.48h334.2c0-4.18,4.2-7.58,9.37-7.58s9.37,3.39,9.37,7.58h131.29c15.8,0,28.6-10.35,28.6-23.12V27.04c0-12.77-12.81-23.12-28.6-23.12ZM374.91,150.5c0,.55-.55,1-1.23,1s-1.23-.45-1.23-1v-1.83c0-.55.55-1,1.23-1s1.23.45,1.23,1v1.83ZM374.91,142.67c0,.55-.55,1-1.23,1s-1.23-.45-1.23-1v-6c0-.55.55-1,1.23-1s1.23.45,1.23,1v6ZM374.91,130.67c0,.55-.55,1-1.23,1s-1.23-.45-1.23-1v-6c0-.55.55-1,1.23-1s1.23.45,1.23,1v6ZM374.91,118.67c0,.55-.55,1-1.23,1s-1.23-.45-1.23-1v-6c0-.55.55-1,1.23-1s1.23.45,1.23,1v6ZM374.91,106.67c0,.55-.55,1-1.23,1s-1.23-.45-1.23-1v-6c0-.55.55-1,1.23-1s1.23.45,1.23,1v6ZM374.91,94.67c0,.55-.55,1-1.23,1s-1.23-.45-1.23-1v-6c0-.55.55-1,1.23-1s1.23.45,1.23,1v6ZM374.91,82.67c0,.55-.55,1-1.23,1s-1.23-.45-1.23-1v-6c0-.55.55-1,1.23-1s1.23.45,1.23,1v6ZM374.91,70.67c0,.55-.55,1-1.23,1s-1.23-.45-1.23-1v-6c0-.55.55-1,1.23-1s1.23.45,1.23,1v6ZM374.91,58.67c0,.55-.55,1-1.23,1s-1.23-.45-1.23-1v-6c0-.55.55-1,1.23-1s1.23.45,1.23,1v6ZM374.91,46.67c0,.55-.55,1-1.23,1s-1.23-.45-1.23-1v-6c0-.55.55-1,1.23-1s1.23.45,1.23,1v6ZM374.91,34.67c0,.55-.55,1-1.23,1s-1.23-.45-1.23-1v-6c0-.55.55-1,1.23-1s1.23.45,1.23,1v6ZM374.91,22.67c0,.55-.55,1-1.23,1s-1.23-.45-1.23-1v-6c0-.55.55-1,1.23-1s1.23.45,1.23,1v6Z" style="fill: none;"/>
    </clipPath>
  </defs>
  <g style="clip-path: url(#clippath);">
    <path d="M518.47,3.92h-131.48c0,4.18-4.2,7.58-9.39,7.58s-9.39-3.39-9.39-7.58H33.54c0,13.52-13.58,24.48-30.32,24.48v15.01c6.76,0,12.24,4.42,12.24,9.88s-5.48,9.88-12.24,9.88v10.55c6.76,0,12.24,4.42,12.24,9.88s-5.48,9.88-12.24,9.88v10.55c6.76,0,12.24,4.42,12.24,9.88s-5.48,9.88-12.24,9.88v15.01c16.75,0,30.32,10.96,30.32,24.48h334.68c0-4.18,4.2-7.58,9.39-7.58s9.39,3.39,9.39,7.58h131.48c15.82,0,28.64-10.35,28.64-23.12V27.04c0-12.77-12.82-23.12-28.64-23.12ZM374.91,150.5c0,.55-.55,1-1.23,1s-1.23-.45-1.23-1v-1.83c0-.55.55-1,1.23-1s1.23.45,1.23,1v1.83ZM374.91,142.67c0,.55-.55,1-1.23,1s-1.23-.45-1.23-1v-6c0-.55.55-1,1.23-1s1.23.45,1.23,1v6ZM374.91,130.67c0,.55-.55,1-1.23,1s-1.23-.45-1.23-1v-6c0-.55.55-1,1.23-1s1.23.45,1.23,1v6ZM374.91,118.67c0,.55-.55,1-1.23,1s-1.23-.45-1.23-1v-6c0-.55.55-1,1.23-1s1.23.45,1.23,1v6ZM374.91,106.67c0,.55-.55,1-1.23,1s-1.23-.45-1.23-1v-6c0-.55.55-1,1.23-1s1.23.45,1.23,1v6ZM374.91,94.67c0,.55-.55,1-1.23,1s-1.23-.45-1.23-1v-6c0-.55.55-1,1.23-1s1.23.45,1.23,1v6ZM374.91,82.67c0,.55-.55,1-1.23,1s-1.23-.45-1.23-1v-6c0-.55.55-1,1.23-1s1.23.45,1.23,1v6ZM374.91,70.67c0,.55-.55,1-1.23,1s-1.23-.45-1.23-1v-6c0-.55.55-1,1.23-1s1.23.45,1.23,1v6ZM374.91,58.67c0,.55-.55,1-1.23,1s-1.23-.45-1.23-1v-6c0-.55.55-1,1.23-1s1.23.45,1.23,1v6ZM374.91,46.67c0,.55-.55,1-1.23,1s-1.23-.45-1.23-1v-6c0-.55.55-1,1.23-1s1.23.45,1.23,1v6ZM374.91,34.67c0,.55-.55,1-1.23,1s-1.23-.45-1.23-1v-6c0-.55.55-1,1.23-1s1.23.45,1.23,1v6ZM374.91,22.67c0,.55-.55,1-1.23,1s-1.23-.45-1.23-1v-6c0-.55.55-1,1.23-1s1.23.45,1.23,1v6ZM141.97,87.67c0,34.01-27.57,61.57-61.57,61.57s-61.57-27.57-61.57-61.57,27.57-61.57,61.57-61.57,61.57,27.57,61.57,61.57Z" style="fill: #fff; stroke: #1d1d1b; stroke-miterlimit: 10; stroke-width: 2px;"/>
    <image width="276" height="183" transform="translate(126 9.48) scale(.19)" xlink:href="images (1).jpeg"/>
    <image width="500" height="500" transform="translate(322.65) scale(.11)" xlink:href="logo.png"/>
    <g>
      <rect x="177.47" y="11.72" width="151.03" height="33.63" style="fill: none;"/>
      <path d="M195.86,20.74c.2.12.48.22.78.22.45,0,.71-.24.71-.58,0-.32-.18-.5-.64-.67-.55-.19-.89-.48-.89-.96,0-.53.44-.92,1.09-.92.35,0,.6.08.75.17l-.12.36c-.11-.06-.34-.16-.64-.16-.46,0-.64.28-.64.51,0,.32.21.47.67.65.57.22.86.5.86.99,0,.52-.39.97-1.18.97-.33,0-.68-.1-.86-.22l.11-.37Z" style="fill: #1d1d1b;"/>
      <path d="M201.25,19.55c0,1.16-.71,1.78-1.57,1.78s-1.52-.69-1.52-1.71.67-1.77,1.57-1.77,1.52.71,1.52,1.71ZM198.63,19.6c0,.72.39,1.37,1.08,1.37s1.08-.64,1.08-1.4c0-.67-.35-1.37-1.08-1.37s-1.08.67-1.08,1.41Z" style="fill: #1d1d1b;"/>
      <path d="M202.22,17.89v2c0,.76.33,1.08.79,1.08.5,0,.82-.33.82-1.08v-2h.44v1.97c0,1.04-.55,1.46-1.28,1.46-.69,0-1.21-.4-1.21-1.44v-1.99h.44Z" style="fill: #1d1d1b;"/>
      <path d="M204.93,20.74c.2.12.48.22.78.22.45,0,.71-.24.71-.58,0-.32-.18-.5-.64-.67-.55-.19-.89-.48-.89-.96,0-.53.44-.92,1.09-.92.35,0,.6.08.75.17l-.12.36c-.11-.06-.34-.16-.64-.16-.46,0-.64.28-.64.51,0,.32.21.47.67.65.57.22.86.5.86.99,0,.52-.39.97-1.18.97-.33,0-.68-.1-.86-.22l.11-.37Z" style="fill: #1d1d1b;"/>
      <path d="M208.47,17.89h.44v3.01h1.44v.37h-1.88v-3.37Z" style="fill: #1d1d1b;"/>
      <path d="M212.55,19.69h-1.31v1.22h1.46v.37h-1.9v-3.37h1.82v.37h-1.39v1.07h1.31v.36Z" style="fill: #1d1d1b;"/>
      <path d="M214.71,17.89v1.41h1.63v-1.41h.44v3.37h-.44v-1.58h-1.63v1.58h-.44v-3.37h.44Z" style="fill: #1d1d1b;"/>
      <path d="M218.05,20.21l-.35,1.06h-.45l1.15-3.37h.53l1.15,3.37h-.47l-.36-1.06h-1.2ZM219.16,19.87l-.33-.97c-.08-.22-.12-.42-.18-.62h0c-.05.2-.11.41-.17.61l-.33.98h1.02Z" style="fill: #1d1d1b;"/>
      <path d="M220.84,17.89v2c0,.76.33,1.08.79,1.08.5,0,.82-.33.82-1.08v-2h.44v1.97c0,1.04-.55,1.46-1.28,1.46-.69,0-1.21-.4-1.21-1.44v-1.99h.44Z" style="fill: #1d1d1b;"/>
      <path d="M224.25,18.26h-1.03v-.37h2.5v.37h-1.03v3h-.44v-3Z" style="fill: #1d1d1b;"/>
      <path d="M227.11,17.93c.21-.03.49-.06.84-.06.43,0,.75.1.95.28.19.16.3.41.3.71s-.09.55-.26.72c-.23.25-.61.37-1.03.37-.13,0-.25,0-.35-.03v1.35h-.44v-3.33ZM227.54,19.56c.1.02.22.04.36.04.53,0,.85-.26.85-.72s-.32-.66-.8-.66c-.19,0-.34.02-.41.04v1.31Z" style="fill: #1d1d1b;"/>
      <path d="M229.87,20.21l-.35,1.06h-.45l1.15-3.37h.53l1.15,3.37h-.47l-.36-1.06h-1.2ZM230.97,19.87l-.33-.97c-.08-.22-.12-.42-.18-.62h0c-.05.2-.1.41-.17.61l-.33.98h1.02Z" style="fill: #1d1d1b;"/>
      <path d="M232.61,18.26h-1.03v-.37h2.5v.37h-1.03v3h-.44v-3Z" style="fill: #1d1d1b;"/>
      <path d="M234.43,17.94c.22-.05.54-.07.84-.07.47,0,.77.09.98.28.17.15.27.38.27.64,0,.45-.28.74-.64.86v.02c.26.09.42.33.5.68.11.47.19.8.26.93h-.45c-.06-.1-.13-.39-.23-.81-.1-.47-.28-.64-.68-.66h-.41v1.46h-.44v-3.33ZM234.87,19.48h.45c.47,0,.76-.26.76-.64,0-.44-.32-.63-.78-.63-.21,0-.36.02-.43.04v1.23Z" style="fill: #1d1d1b;"/>
      <path d="M240,19.55c0,1.16-.71,1.78-1.57,1.78s-1.52-.69-1.52-1.71.67-1.77,1.57-1.77,1.52.71,1.52,1.71ZM237.38,19.6c0,.72.39,1.37,1.08,1.37s1.08-.64,1.08-1.4c0-.67-.35-1.37-1.08-1.37s-1.08.67-1.08,1.41Z" style="fill: #1d1d1b;"/>
      <path d="M240.53,21.27v-3.37h.48l1.08,1.71c.25.4.45.75.61,1.1h.01c-.04-.46-.05-.87-.05-1.39v-1.41h.41v3.37h-.44l-1.07-1.71c-.24-.38-.46-.76-.63-1.13h-.01c.02.43.04.84.04,1.4v1.44h-.41Z" style="fill: #1d1d1b;"/>
      <path d="M244.34,20.21l-.35,1.06h-.45l1.15-3.37h.53l1.15,3.37h-.47l-.36-1.06h-1.2ZM245.45,19.87l-.33-.97c-.08-.22-.12-.42-.18-.62h0c-.05.2-.1.41-.17.61l-.33.98h1.02Z" style="fill: #1d1d1b;"/>
      <path d="M249.32,21.12c-.19.07-.58.19-1.04.19-.51,0-.93-.13-1.26-.45-.29-.28-.47-.73-.47-1.26,0-1.01.7-1.74,1.83-1.74.39,0,.7.08.84.15l-.1.36c-.18-.08-.41-.15-.75-.15-.82,0-1.36.51-1.36,1.36s.52,1.36,1.3,1.36c.29,0,.48-.04.58-.09v-1.01h-.69v-.35h1.11v1.62Z" style="fill: #1d1d1b;"/>
      <path d="M251.71,19.69h-1.31v1.22h1.46v.37h-1.9v-3.37h1.82v.37h-1.39v1.07h1.31v.36Z" style="fill: #1d1d1b;"/>
      <path d="M253.43,17.94c.27-.04.58-.07.93-.07.63,0,1.07.15,1.37.42.3.28.48.67.48,1.21s-.17,1-.49,1.31c-.32.32-.84.49-1.49.49-.31,0-.57-.01-.79-.04v-3.32ZM253.87,20.92c.11.02.27.02.44.02.93,0,1.44-.52,1.44-1.43,0-.8-.45-1.3-1.37-1.3-.23,0-.4.02-.51.05v2.66Z" style="fill: #1d1d1b;"/>
      <path d="M258.48,19.69h-1.31v1.22h1.46v.37h-1.9v-3.37h1.82v.37h-1.39v1.07h1.31v.36Z" style="fill: #1d1d1b;"/>
      <path d="M260.15,20.74c.2.12.48.22.78.22.45,0,.71-.24.71-.58,0-.32-.18-.5-.64-.67-.55-.19-.89-.48-.89-.96,0-.53.44-.92,1.09-.92.35,0,.6.08.75.17l-.12.36c-.11-.06-.34-.16-.64-.16-.46,0-.64.28-.64.51,0,.32.21.47.67.65.57.22.86.5.86.99,0,.52-.39.97-1.18.97-.33,0-.68-.1-.86-.22l.11-.37Z" style="fill: #1d1d1b;"/>
      <path d="M264.39,19.69h-1.31v1.22h1.46v.37h-1.9v-3.37h1.82v.37h-1.39v1.07h1.31v.36Z" style="fill: #1d1d1b;"/>
      <path d="M264.94,21.01c0-.19.12-.32.3-.32s.3.13.3.32-.12.32-.3.32c-.18,0-.3-.14-.3-.32Z" style="fill: #1d1d1b;"/>
      <path d="M266.07,17.89h.44v3.01h1.44v.37h-1.88v-3.37Z" style="fill: #1d1d1b;"/>
      <path d="M270.15,19.69h-1.31v1.22h1.46v.37h-1.9v-3.37h1.82v.37h-1.39v1.07h1.31v.36Z" style="fill: #1d1d1b;"/>
      <path d="M274.44,21.12c-.19.07-.58.19-1.04.19-.51,0-.93-.13-1.26-.45-.29-.28-.47-.73-.47-1.26,0-1.01.7-1.74,1.83-1.74.39,0,.7.08.84.15l-.1.36c-.18-.08-.41-.15-.75-.15-.82,0-1.36.51-1.36,1.36s.52,1.36,1.3,1.36c.29,0,.48-.04.58-.09v-1.01h-.69v-.35h1.11v1.62Z" style="fill: #1d1d1b;"/>
      <path d="M276.83,19.69h-1.31v1.22h1.46v.37h-1.9v-3.37h1.82v.37h-1.39v1.07h1.31v.36Z" style="fill: #1d1d1b;"/>
      <path d="M277.52,21.27v-3.37h.48l1.08,1.71c.25.4.45.75.61,1.1h.01c-.04-.46-.05-.87-.05-1.39v-1.41h.41v3.37h-.44l-1.07-1.71c-.24-.38-.46-.76-.63-1.13h-.01c.02.43.04.84.04,1.4v1.44h-.41Z" style="fill: #1d1d1b;"/>
      <path d="M282.53,19.69h-1.31v1.22h1.46v.37h-1.9v-3.37h1.82v.37h-1.39v1.07h1.31v.36Z" style="fill: #1d1d1b;"/>
      <path d="M283.22,17.94c.22-.05.54-.07.84-.07.47,0,.77.09.98.28.17.15.27.38.27.64,0,.45-.28.74-.64.86v.02c.26.09.42.33.5.68.11.47.19.8.26.93h-.45c-.05-.1-.13-.39-.23-.81-.1-.47-.28-.64-.68-.66h-.41v1.46h-.44v-3.33ZM283.65,19.48h.45c.47,0,.76-.26.76-.64,0-.44-.32-.63-.78-.63-.21,0-.36.02-.43.04v1.23Z" style="fill: #1d1d1b;"/>
      <path d="M286.45,20.21l-.35,1.06h-.45l1.15-3.37h.53l1.15,3.37h-.47l-.36-1.06h-1.2ZM287.56,19.87l-.33-.97c-.08-.22-.12-.42-.18-.62h0c-.05.2-.1.41-.17.61l-.33.98h1.02Z" style="fill: #1d1d1b;"/>
      <path d="M288.94,17.89h.44v3.01h1.44v.37h-1.88v-3.37Z" style="fill: #1d1d1b;"/>
      <path d="M292.31,17.94c.27-.04.58-.07.93-.07.63,0,1.07.15,1.37.42.3.28.48.67.48,1.21s-.17,1-.49,1.31c-.32.32-.84.49-1.49.49-.31,0-.57-.01-.79-.04v-3.32ZM292.75,20.92c.11.02.27.02.44.02.93,0,1.44-.52,1.44-1.43,0-.8-.45-1.3-1.37-1.3-.23,0-.4.02-.51.05v2.66Z" style="fill: #1d1d1b;"/>
      <path d="M296.2,17.84c-.12.42-.33.96-.47,1.19l-.28.04c.11-.3.24-.82.29-1.18l.46-.04Z" style="fill: #1d1d1b;"/>
      <path d="M296.77,20.21l-.35,1.06h-.45l1.15-3.37h.53l1.15,3.37h-.47l-.36-1.06h-1.2ZM297.87,19.87l-.33-.97c-.08-.22-.12-.42-.18-.62h0c-.05.2-.11.41-.17.61l-.33.98h1.02Z" style="fill: #1d1d1b;"/>
      <path d="M299.26,17.94c.22-.05.54-.07.84-.07.47,0,.77.09.98.28.17.15.27.38.27.64,0,.45-.28.74-.64.86v.02c.26.09.42.33.5.68.11.47.19.8.26.93h-.45c-.06-.1-.13-.39-.23-.81-.1-.47-.28-.64-.68-.66h-.41v1.46h-.44v-3.33ZM299.69,19.48h.45c.47,0,.76-.26.76-.64,0-.44-.32-.63-.78-.63-.21,0-.36.02-.43.04v1.23Z" style="fill: #1d1d1b;"/>
      <path d="M304.76,19.79c-.02-.47-.06-1.04-.05-1.46h-.02c-.12.4-.26.82-.43,1.28l-.6,1.64h-.33l-.55-1.61c-.16-.48-.3-.91-.39-1.31h0c0,.42-.04.99-.06,1.49l-.09,1.45h-.42l.23-3.37h.56l.58,1.63c.14.42.25.79.34,1.14h.02c.08-.34.21-.71.35-1.14l.6-1.63h.56l.21,3.37h-.43l-.08-1.48Z" style="fill: #1d1d1b;"/>
      <path d="M307.66,19.69h-1.31v1.22h1.46v.37h-1.9v-3.37h1.82v.37h-1.39v1.07h1.31v.36Z" style="fill: #1d1d1b;"/>
      <path d="M310.1,19.69h-1.31v1.22h1.46v.37h-1.9v-3.37h1.82v.37h-1.39v1.07h1.31v.36Z" style="fill: #1d1d1b;"/>
      <path d="M183.67,26.21l-.35,1.06h-.45l1.15-3.37h.53l1.15,3.37h-.47l-.36-1.06h-1.2ZM184.78,25.87l-.33-.97c-.08-.22-.12-.42-.18-.62h0c-.05.2-.11.41-.17.61l-.33.98h1.02Z" style="fill: #1d1d1b;"/>
      <path d="M186.16,23.94c.19-.04.49-.07.8-.07.44,0,.72.08.93.25.18.13.28.33.28.6,0,.33-.22.61-.57.74h0c.32.09.7.36.7.86,0,.29-.11.51-.29.68-.24.22-.62.31-1.17.31-.3,0-.53-.02-.68-.04v-3.32ZM186.6,25.32h.4c.46,0,.73-.24.73-.57,0-.4-.3-.55-.74-.55-.2,0-.32.02-.39.03v1.09ZM186.6,26.94c.08.02.21.02.37.02.45,0,.87-.17.87-.66,0-.46-.4-.65-.87-.65h-.36v1.29Z" style="fill: #1d1d1b;"/>
      <path d="M188.85,23.94c.27-.04.58-.07.93-.07.63,0,1.07.15,1.37.42.3.28.48.67.48,1.21s-.17,1-.49,1.31c-.32.32-.84.49-1.49.49-.31,0-.57-.01-.79-.04v-3.32ZM189.28,26.92c.11.02.27.02.44.02.93,0,1.44-.52,1.44-1.43,0-.8-.45-1.3-1.37-1.3-.23,0-.4.02-.51.05v2.66Z" style="fill: #1d1d1b;"/>
      <path d="M195.04,25.55c0,1.16-.71,1.78-1.57,1.78s-1.52-.69-1.52-1.71.67-1.77,1.57-1.77,1.52.71,1.52,1.71ZM192.42,25.6c0,.72.39,1.37,1.08,1.37s1.08-.64,1.08-1.4c0-.67-.35-1.37-1.08-1.37s-1.08.67-1.08,1.41Z" style="fill: #1d1d1b;"/>
      <path d="M196.01,23.89v2c0,.76.33,1.08.79,1.08.5,0,.82-.33.82-1.08v-2h.44v1.97c0,1.04-.55,1.46-1.28,1.46-.69,0-1.21-.4-1.21-1.44v-1.99h.44Z" style="fill: #1d1d1b;"/>
      <path d="M198.78,23.94c.22-.05.54-.07.84-.07.47,0,.77.09.98.28.17.15.27.38.27.64,0,.45-.28.74-.64.86v.02c.26.09.42.33.5.68.11.47.19.8.26.93h-.45c-.06-.1-.13-.39-.23-.81-.1-.47-.28-.64-.68-.66h-.41v1.46h-.44v-3.33ZM199.22,25.48h.45c.47,0,.76-.26.76-.64,0-.44-.32-.63-.78-.63-.21,0-.36.02-.43.04v1.23Z" style="fill: #1d1d1b;"/>
      <path d="M202.02,26.21l-.35,1.06h-.45l1.15-3.37h.53l1.15,3.37h-.47l-.36-1.06h-1.2ZM203.13,25.87l-.33-.97c-.08-.22-.12-.42-.18-.62h0c-.05.2-.11.41-.17.61l-.33.98h1.02Z" style="fill: #1d1d1b;"/>
      <path d="M204.94,23.89v1.41h1.63v-1.41h.44v3.37h-.44v-1.58h-1.63v1.58h-.44v-3.37h.44Z" style="fill: #1d1d1b;"/>
      <path d="M208.29,26.21l-.35,1.06h-.45l1.15-3.37h.53l1.15,3.37h-.47l-.36-1.06h-1.2ZM209.39,25.87l-.33-.97c-.08-.22-.12-.42-.18-.62h0c-.05.2-.11.41-.17.61l-.33.98h1.02Z" style="fill: #1d1d1b;"/>
      <path d="M213.6,25.79c-.02-.47-.06-1.04-.05-1.46h-.02c-.12.4-.26.82-.43,1.28l-.6,1.64h-.33l-.55-1.61c-.16-.48-.3-.91-.39-1.31h0c0,.42-.04.99-.06,1.49l-.09,1.45h-.42l.23-3.37h.56l.58,1.63c.14.42.25.79.34,1.14h.02c.08-.34.21-.71.35-1.14l.6-1.63h.56l.21,3.37h-.43l-.08-1.48Z" style="fill: #1d1d1b;"/>
      <path d="M215.25,26.21l-.35,1.06h-.45l1.15-3.37h.53l1.15,3.37h-.47l-.36-1.06h-1.2ZM216.35,25.87l-.33-.97c-.08-.22-.12-.42-.18-.62h0c-.05.2-.1.41-.17.61l-.33.98h1.02Z" style="fill: #1d1d1b;"/>
      <path d="M217.74,27.27v-3.37h.48l1.08,1.71c.25.4.45.75.61,1.1h0c-.04-.46-.05-.87-.05-1.39v-1.41h.41v3.37h-.44l-1.07-1.71c-.24-.38-.46-.76-.63-1.13h-.02c.02.43.03.84.03,1.4v1.44h-.41Z" style="fill: #1d1d1b;"/>
      <path d="M222.75,25.69h-1.31v1.22h1.46v.37h-1.9v-3.37h1.82v.37h-1.39v1.07h1.31v.36Z" style="fill: #1d1d1b;"/>
      <path d="M224.91,24.26h-1.03v-.37h2.5v.37h-1.03v3h-.44v-3Z" style="fill: #1d1d1b;"/>
      <path d="M227.16,23.89v3.37h-.44v-3.37h.44Z" style="fill: #1d1d1b;"/>
      <path d="M228.44,26.21l-.35,1.06h-.45l1.15-3.37h.53l1.15,3.37h-.47l-.36-1.06h-1.2ZM229.55,25.87l-.33-.97c-.08-.22-.12-.42-.18-.62h0c-.05.2-.11.41-.17.61l-.33.98h1.02Z" style="fill: #1d1d1b;"/>
      <path d="M230.93,27.27v-3.37h.48l1.08,1.71c.25.4.45.75.61,1.1h.01c-.04-.46-.05-.87-.05-1.39v-1.41h.41v3.37h-.44l-1.07-1.71c-.24-.38-.46-.76-.63-1.13h-.01c.02.43.04.84.04,1.4v1.44h-.41Z" style="fill: #1d1d1b;"/>
      <path d="M234.63,23.89v3.37h-.44v-3.37h.44Z" style="fill: #1d1d1b;"/>
      <path d="M236.1,27.88c.11-.3.25-.83.3-1.2l.49-.05c-.12.43-.34.98-.48,1.22l-.32.03Z" style="fill: #1d1d1b;"/>
      <path d="M238.45,23.93c.21-.03.49-.06.84-.06.43,0,.75.1.95.28.19.16.3.41.3.71s-.09.55-.26.72c-.23.25-.61.37-1.03.37-.13,0-.25,0-.35-.03v1.35h-.44v-3.33ZM238.88,25.56c.09.02.21.04.36.04.53,0,.85-.26.85-.72s-.32-.66-.8-.66c-.19,0-.33.02-.41.04v1.31Z" style="fill: #1d1d1b;"/>
      <path d="M241.08,23.94c.22-.05.54-.07.84-.07.47,0,.77.09.98.28.17.15.27.38.27.64,0,.45-.28.74-.64.86v.02c.26.09.42.33.5.68.11.47.19.8.26.93h-.45c-.06-.1-.13-.39-.23-.81-.1-.47-.28-.64-.68-.66h-.41v1.46h-.44v-3.33ZM241.52,25.48h.45c.47,0,.76-.26.76-.64,0-.44-.32-.63-.78-.63-.21,0-.36.02-.43.04v1.23Z" style="fill: #1d1d1b;"/>
      <path d="M245.49,25.69h-1.31v1.22h1.46v.37h-1.9v-3.37h1.82v.37h-1.39v1.07h1.31v.36Z" style="fill: #1d1d1b;"/>
      <path d="M246.12,26.74c.2.12.48.22.78.22.45,0,.71-.24.71-.58,0-.32-.18-.5-.64-.67-.55-.19-.89-.48-.89-.96,0-.53.44-.92,1.09-.92.35,0,.6.08.75.17l-.12.36c-.11-.06-.34-.16-.64-.16-.46,0-.64.28-.64.51,0,.32.21.47.67.65.57.22.86.5.86.99,0,.52-.39.97-1.18.97-.33,0-.68-.1-.86-.22l.11-.37Z" style="fill: #1d1d1b;"/>
      <path d="M249.06,23.89v3.37h-.44v-3.37h.44Z" style="fill: #1d1d1b;"/>
      <path d="M249.79,23.94c.27-.04.58-.07.93-.07.63,0,1.07.15,1.37.42.3.28.48.67.48,1.21s-.17,1-.49,1.31c-.32.32-.84.49-1.49.49-.31,0-.57-.01-.79-.04v-3.32ZM250.23,26.92c.11.02.27.02.44.02.93,0,1.44-.52,1.44-1.43,0-.8-.45-1.3-1.37-1.3-.23,0-.4.02-.51.05v2.66Z" style="fill: #1d1d1b;"/>
      <path d="M254.84,25.69h-1.31v1.22h1.46v.37h-1.9v-3.37h1.82v.37h-1.39v1.07h1.31v.36Z" style="fill: #1d1d1b;"/>
      <path d="M255.53,27.27v-3.37h.48l1.08,1.71c.25.4.45.75.61,1.1h.01c-.04-.46-.05-.87-.05-1.39v-1.41h.41v3.37h-.44l-1.07-1.71c-.24-.38-.46-.76-.63-1.13h-.01c.02.43.04.84.04,1.4v1.44h-.41Z" style="fill: #1d1d1b;"/>
      <path d="M259.44,24.26h-1.03v-.37h2.5v.37h-1.03v3h-.44v-3Z" style="fill: #1d1d1b;"/>
      <path d="M262.29,23.94c.27-.04.58-.07.93-.07.63,0,1.07.15,1.37.42.3.28.48.67.48,1.21s-.17,1-.49,1.31c-.32.32-.84.49-1.49.49-.31,0-.57-.01-.79-.04v-3.32ZM262.73,26.92c.11.02.27.02.44.02.93,0,1.44-.52,1.44-1.43,0-.8-.45-1.3-1.37-1.3-.23,0-.4.02-.51.05v2.66Z" style="fill: #1d1d1b;"/>
      <path d="M267.34,25.69h-1.31v1.22h1.46v.37h-1.9v-3.37h1.82v.37h-1.39v1.07h1.31v.36Z" style="fill: #1d1d1b;"/>
      <path d="M269.07,23.89h.44v3.01h1.44v.37h-1.88v-3.37Z" style="fill: #1d1d1b;"/>
      <path d="M271.95,26.21l-.35,1.06h-.45l1.15-3.37h.53l1.15,3.37h-.47l-.36-1.06h-1.2ZM273.05,25.87l-.33-.97c-.08-.22-.12-.42-.18-.62h0c-.05.2-.11.41-.17.61l-.33.98h1.02Z" style="fill: #1d1d1b;"/>
      <path d="M275.47,23.94c.22-.05.54-.07.84-.07.47,0,.77.09.98.28.17.15.27.38.27.64,0,.45-.28.74-.64.86v.02c.26.09.42.33.5.68.11.47.19.8.26.93h-.45c-.06-.1-.13-.39-.23-.81-.1-.47-.28-.64-.68-.66h-.41v1.46h-.44v-3.33ZM275.91,25.48h.45c.47,0,.76-.26.76-.64,0-.44-.32-.63-.78-.63-.21,0-.36.02-.43.04v1.23Z" style="fill: #1d1d1b;"/>
      <path d="M279.88,25.69h-1.31v1.22h1.46v.37h-1.9v-3.37h1.82v.37h-1.39v1.07h1.31v.36Z" style="fill: #1d1d1b;"/>
      <path d="M280.57,23.93c.21-.03.49-.06.84-.06.43,0,.75.1.95.28.19.16.3.41.3.71s-.09.55-.26.72c-.23.25-.61.37-1.03.37-.13,0-.25,0-.35-.03v1.35h-.44v-3.33ZM281.01,25.56c.1.02.22.04.36.04.53,0,.85-.26.85-.72s-.32-.66-.8-.66c-.19,0-.34.02-.41.04v1.31Z" style="fill: #1d1d1b;"/>
      <path d="M283.21,23.89h.44v3.01h1.44v.37h-1.88v-3.37Z" style="fill: #1d1d1b;"/>
      <path d="M285.8,23.89v2c0,.76.33,1.08.79,1.08.5,0,.82-.33.82-1.08v-2h.44v1.97c0,1.04-.55,1.46-1.28,1.46-.69,0-1.21-.4-1.21-1.44v-1.99h.44Z" style="fill: #1d1d1b;"/>
      <path d="M288.57,23.94c.19-.04.49-.07.8-.07.44,0,.72.08.93.25.18.13.28.33.28.6,0,.33-.22.61-.57.74h0c.32.09.7.36.7.86,0,.29-.11.51-.29.68-.24.22-.62.31-1.17.31-.3,0-.53-.02-.68-.04v-3.32ZM289.01,25.32h.4c.46,0,.73-.24.73-.57,0-.4-.3-.55-.74-.55-.2,0-.32.02-.39.03v1.09ZM289.01,26.94c.08.02.21.02.37.02.45,0,.87-.17.87-.66,0-.46-.4-.65-.87-.65h-.36v1.29Z" style="fill: #1d1d1b;"/>
      <path d="M291.26,23.89h.44v3.01h1.44v.37h-1.88v-3.37Z" style="fill: #1d1d1b;"/>
      <path d="M294.03,23.89v3.37h-.44v-3.37h.44Z" style="fill: #1d1d1b;"/>
      <path d="M297.55,27.76c-.46-.12-.9-.26-1.29-.39-.07-.02-.14-.05-.21-.05-.8-.03-1.49-.62-1.49-1.71s.66-1.78,1.57-1.78,1.51.71,1.51,1.71c0,.87-.4,1.42-.96,1.62v.02c.34.08.7.17.99.22l-.12.37ZM297.19,25.57c0-.68-.35-1.37-1.07-1.37s-1.1.68-1.09,1.41c0,.72.39,1.36,1.07,1.36s1.09-.63,1.09-1.4Z" style="fill: #1d1d1b;"/>
      <path d="M298.62,23.89v2c0,.76.33,1.08.79,1.08.5,0,.82-.33.82-1.08v-2h.44v1.97c0,1.04-.55,1.46-1.28,1.46-.69,0-1.21-.4-1.21-1.44v-1.99h.44Z" style="fill: #1d1d1b;"/>
      <path d="M303.14,25.69h-1.31v1.22h1.46v.37h-1.9v-3.37h1.82v.37h-1.39v1.07h1.31v.36Z" style="fill: #1d1d1b;"/>
      <path d="M303.51,27.88c.11-.3.25-.83.3-1.2l.49-.05c-.12.43-.34.98-.48,1.22l-.32.03Z" style="fill: #1d1d1b;"/>
      <path d="M308.21,27.16c-.16.08-.48.16-.89.16-.95,0-1.67-.6-1.67-1.71s.72-1.77,1.76-1.77c.42,0,.69.09.8.15l-.1.36c-.17-.08-.4-.14-.68-.14-.79,0-1.32.51-1.32,1.39,0,.83.48,1.36,1.3,1.36.27,0,.54-.06.71-.14l.09.35Z" style="fill: #1d1d1b;"/>
      <path d="M309.16,23.89v1.41h1.63v-1.41h.44v3.37h-.44v-1.58h-1.63v1.58h-.44v-3.37h.44Z" style="fill: #1d1d1b;"/>
      <path d="M313.71,25.69h-1.31v1.22h1.46v.37h-1.9v-3.37h1.82v.37h-1.39v1.07h1.31v.36Z" style="fill: #1d1d1b;"/>
      <path d="M314.4,23.89h1.82v.37h-1.38v1.12h1.28v.36h-1.28v1.53h-.44v-3.37Z" style="fill: #1d1d1b;"/>
      <path d="M317.84,23.94c.27-.04.58-.07.93-.07.63,0,1.07.15,1.37.42.3.28.48.67.48,1.21s-.17,1-.49,1.31c-.32.32-.84.49-1.49.49-.31,0-.57-.01-.79-.04v-3.32ZM318.28,26.92c.11.02.27.02.44.02.93,0,1.44-.52,1.44-1.43,0-.8-.45-1.3-1.37-1.3-.23,0-.4.02-.51.05v2.66Z" style="fill: #1d1d1b;"/>
      <path d="M322.89,25.69h-1.31v1.22h1.46v.37h-1.9v-3.37h1.82v.37h-1.39v1.07h1.31v.36Z" style="fill: #1d1d1b;"/>
      <path d="M179.2,29.89h.44v3.01h1.44v.37h-1.88v-3.37Z" style="fill: #1d1d1b;"/>
      <path d="M181.56,29.84c-.12.42-.33.96-.47,1.19l-.28.04c.11-.3.24-.82.29-1.18l.46-.04Z" style="fill: #1d1d1b;"/>
      <path d="M183.77,31.69h-1.31v1.22h1.46v.37h-1.9v-3.37h1.82v.37h-1.39v1.07h1.31v.36Z" style="fill: #1d1d1b;"/>
      <path d="M185.18,30.26h-1.03v-.37h2.5v.37h-1.03v3h-.44v-3Z" style="fill: #1d1d1b;"/>
      <path d="M187.17,32.21l-.35,1.06h-.45l1.15-3.37h.53l1.15,3.37h-.47l-.36-1.06h-1.2ZM188.28,31.87l-.33-.97c-.08-.22-.12-.42-.18-.62h0c-.05.2-.11.41-.17.61l-.33.98h1.02Z" style="fill: #1d1d1b;"/>
      <path d="M189.92,30.26h-1.03v-.37h2.5v.37h-1.03v3h-.44v-3Z" style="fill: #1d1d1b;"/>
      <path d="M191.14,33.88c.11-.3.25-.83.3-1.2l.49-.05c-.11.43-.33.98-.48,1.22l-.32.03Z" style="fill: #1d1d1b;"/>
      <path d="M193.48,29.89h.44v3.01h1.44v.37h-1.88v-3.37Z" style="fill: #1d1d1b;"/>
      <path d="M197.56,31.69h-1.31v1.22h1.46v.37h-1.9v-3.37h1.82v.37h-1.39v1.07h1.31v.36Z" style="fill: #1d1d1b;"/>
      <path d="M199.29,29.93c.21-.03.49-.06.84-.06.43,0,.75.1.95.28.19.16.3.41.3.71s-.09.55-.26.72c-.23.25-.61.37-1.03.37-.13,0-.25,0-.35-.03v1.35h-.44v-3.33ZM199.72,31.56c.1.02.22.04.36.04.53,0,.85-.26.85-.72s-.32-.66-.8-.66c-.19,0-.34.02-.41.04v1.31Z" style="fill: #1d1d1b;"/>
      <path d="M202.05,32.21l-.35,1.06h-.45l1.15-3.37h.53l1.15,3.37h-.47l-.36-1.06h-1.2ZM203.15,31.87l-.33-.97c-.08-.22-.12-.42-.18-.62h0c-.05.2-.1.41-.17.61l-.33.98h1.02Z" style="fill: #1d1d1b;"/>
      <path d="M204.54,29.94c.22-.05.54-.07.84-.07.47,0,.77.09.98.28.17.15.27.38.27.64,0,.45-.28.74-.64.86v.02c.26.09.42.33.5.68.11.47.19.8.26.93h-.45c-.05-.1-.13-.39-.23-.81-.1-.47-.28-.64-.68-.66h-.41v1.46h-.44v-3.33ZM204.97,31.48h.45c.47,0,.76-.26.76-.64,0-.44-.32-.63-.78-.63-.21,0-.36.02-.43.04v1.23Z" style="fill: #1d1d1b;"/>
      <path d="M207.2,29.94c.22-.05.54-.07.84-.07.47,0,.77.09.98.28.17.15.27.38.27.64,0,.45-.28.74-.64.86v.02c.26.09.42.33.5.68.11.47.19.8.26.93h-.45c-.05-.1-.13-.39-.23-.81-.1-.47-.28-.64-.68-.66h-.41v1.46h-.44v-3.33ZM207.64,31.48h.45c.47,0,.76-.26.76-.64,0-.44-.32-.63-.78-.63-.21,0-.36.02-.43.04v1.23Z" style="fill: #1d1d1b;"/>
      <path d="M210.44,32.21l-.35,1.06h-.45l1.15-3.37h.53l1.15,3.37h-.47l-.36-1.06h-1.2ZM211.54,31.87l-.33-.97c-.08-.22-.12-.42-.18-.62h0c-.05.2-.1.41-.17.61l-.33.98h1.02Z" style="fill: #1d1d1b;"/>
      <path d="M213.36,29.89v3.37h-.44v-3.37h.44Z" style="fill: #1d1d1b;"/>
      <path d="M214.1,33.27v-3.37h.48l1.08,1.71c.25.4.45.75.61,1.1h0c-.04-.46-.05-.87-.05-1.39v-1.41h.41v3.37h-.44l-1.07-1.71c-.24-.38-.46-.76-.63-1.13h-.02c.02.43.03.84.03,1.4v1.44h-.41Z" style="fill: #1d1d1b;"/>
      <path d="M217.91,32.21l-.35,1.06h-.45l1.15-3.37h.53l1.15,3.37h-.47l-.36-1.06h-1.2ZM219.01,31.87l-.33-.97c-.08-.22-.12-.42-.18-.62h0c-.05.2-.1.41-.17.61l-.33.98h1.02Z" style="fill: #1d1d1b;"/>
      <path d="M222.89,33.12c-.19.07-.58.19-1.04.19-.51,0-.93-.13-1.26-.45-.29-.28-.47-.73-.47-1.26,0-1.01.7-1.74,1.83-1.74.39,0,.7.08.84.15l-.1.36c-.18-.08-.41-.15-.75-.15-.82,0-1.36.51-1.36,1.36s.52,1.36,1.3,1.36c.29,0,.48-.04.58-.09v-1.01h-.69v-.35h1.11v1.62Z" style="fill: #1d1d1b;"/>
      <path d="M225.27,31.69h-1.31v1.22h1.46v.37h-1.9v-3.37h1.82v.37h-1.39v1.07h1.31v.36Z" style="fill: #1d1d1b;"/>
      <path d="M227,29.94c.27-.04.58-.07.93-.07.63,0,1.07.15,1.37.42.3.28.48.67.48,1.21s-.17,1-.49,1.31c-.32.32-.84.49-1.49.49-.31,0-.57-.01-.79-.04v-3.32ZM227.43,32.92c.11.02.27.02.44.02.93,0,1.44-.52,1.44-1.43,0-.8-.45-1.3-1.37-1.3-.23,0-.4.02-.51.05v2.66Z" style="fill: #1d1d1b;"/>
      <path d="M232.05,31.69h-1.31v1.22h1.46v.37h-1.9v-3.37h1.82v.37h-1.39v1.07h1.31v.36Z" style="fill: #1d1d1b;"/>
      <path d="M233.71,32.74c.2.12.48.22.78.22.45,0,.71-.24.71-.58,0-.32-.18-.5-.64-.67-.55-.19-.89-.48-.89-.96,0-.53.44-.92,1.09-.92.35,0,.6.08.75.17l-.12.36c-.11-.06-.34-.16-.64-.16-.46,0-.64.28-.64.51,0,.32.21.47.67.65.57.22.86.5.86.99,0,.52-.39.97-1.18.97-.33,0-.68-.1-.86-.22l.11-.37Z" style="fill: #1d1d1b;"/>
      <path d="M237.96,31.69h-1.31v1.22h1.46v.37h-1.9v-3.37h1.82v.37h-1.39v1.07h1.31v.36Z" style="fill: #1d1d1b;"/>
      <path d="M241.49,31.79c-.02-.47-.06-1.04-.05-1.46h-.01c-.12.4-.26.82-.43,1.28l-.6,1.64h-.33l-.55-1.61c-.16-.48-.3-.91-.39-1.31h-.01c-.01.42-.04.99-.06,1.49l-.09,1.45h-.42l.24-3.37h.56l.58,1.63c.14.42.26.79.34,1.14h.01c.09-.34.21-.71.36-1.14l.6-1.63h.56l.21,3.37h-.43l-.08-1.48Z" style="fill: #1d1d1b;"/>
      <path d="M244.22,32.21l-.35,1.06h-.45l1.15-3.37h.53l1.15,3.37h-.47l-.36-1.06h-1.2ZM245.33,31.87l-.33-.97c-.08-.22-.12-.42-.18-.62h0c-.05.2-.1.41-.17.61l-.33.98h1.02Z" style="fill: #1d1d1b;"/>
      <path d="M246.71,29.89h.44v3.01h1.44v.37h-1.88v-3.37Z" style="fill: #1d1d1b;"/>
      <path d="M249.48,29.89v3.37h-.44v-3.37h.44Z" style="fill: #1d1d1b;"/>
      <path d="M254.09,31.79c-.02-.47-.06-1.04-.05-1.46h-.01c-.12.4-.26.82-.43,1.28l-.6,1.64h-.33l-.55-1.61c-.16-.48-.3-.91-.39-1.31h-.01c-.01.42-.04.99-.06,1.49l-.09,1.45h-.42l.24-3.37h.56l.58,1.63c.14.42.26.79.34,1.14h.01c.09-.34.21-.71.36-1.14l.6-1.63h.56l.21,3.37h-.43l-.08-1.48Z" style="fill: #1d1d1b;"/>
      <path d="M255.74,32.21l-.35,1.06h-.45l1.15-3.37h.53l1.15,3.37h-.47l-.36-1.06h-1.2ZM256.85,31.87l-.33-.97c-.08-.22-.12-.42-.18-.62h0c-.05.2-.1.41-.17.61l-.33.98h1.02Z" style="fill: #1d1d1b;"/>
      <path d="M258.67,29.89v1.41h1.63v-1.41h.44v3.37h-.44v-1.58h-1.63v1.58h-.44v-3.37h.44Z" style="fill: #1d1d1b;"/>
      <path d="M262.01,32.21l-.35,1.06h-.45l1.15-3.37h.53l1.15,3.37h-.47l-.36-1.06h-1.2ZM263.12,31.87l-.33-.97c-.08-.22-.12-.42-.18-.62h0c-.05.2-.11.41-.17.61l-.33.98h1.02Z" style="fill: #1d1d1b;"/>
      <path d="M267.32,31.79c-.02-.47-.06-1.04-.05-1.46h-.02c-.12.4-.26.82-.43,1.28l-.6,1.64h-.33l-.55-1.61c-.16-.48-.3-.91-.39-1.31h0c0,.42-.04.99-.06,1.49l-.09,1.45h-.42l.23-3.37h.56l.58,1.63c.14.42.25.79.34,1.14h.02c.08-.34.21-.71.35-1.14l.6-1.63h.56l.21,3.37h-.43l-.08-1.48Z" style="fill: #1d1d1b;"/>
      <path d="M268.97,32.21l-.35,1.06h-.45l1.15-3.37h.53l1.15,3.37h-.47l-.36-1.06h-1.2ZM270.08,31.87l-.33-.97c-.08-.22-.12-.42-.18-.62h0c-.05.2-.11.41-.17.61l-.33.98h1.02Z" style="fill: #1d1d1b;"/>
      <path d="M271.46,33.27v-3.37h.48l1.08,1.71c.25.4.45.75.61,1.1h.01c-.04-.46-.05-.87-.05-1.39v-1.41h.41v3.37h-.44l-1.07-1.71c-.24-.38-.46-.76-.63-1.13h-.01c.02.43.04.84.04,1.4v1.44h-.41Z" style="fill: #1d1d1b;"/>
      <path d="M276.47,31.69h-1.31v1.22h1.46v.37h-1.9v-3.37h1.82v.37h-1.39v1.07h1.31v.36Z" style="fill: #1d1d1b;"/>
      <path d="M278.2,29.89h.44v3.01h1.44v.37h-1.88v-3.37Z" style="fill: #1d1d1b;"/>
      <path d="M281.08,32.21l-.35,1.06h-.45l1.15-3.37h.53l1.15,3.37h-.47l-.36-1.06h-1.2ZM282.18,31.87l-.33-.97c-.08-.22-.12-.42-.18-.62h0c-.05.2-.1.41-.17.61l-.33.98h1.02Z" style="fill: #1d1d1b;"/>
      <path d="M286.39,31.79c-.02-.47-.06-1.04-.05-1.46h-.01c-.12.4-.26.82-.43,1.28l-.6,1.64h-.33l-.55-1.61c-.16-.48-.3-.91-.39-1.31h-.01c-.01.42-.04.99-.06,1.49l-.09,1.45h-.42l.24-3.37h.56l.58,1.63c.14.42.26.79.34,1.14h.01c.09-.34.21-.71.36-1.14l.6-1.63h.56l.21,3.37h-.43l-.08-1.48Z" style="fill: #1d1d1b;"/>
      <path d="M287.98,29.89v3.37h-.44v-3.37h.44Z" style="fill: #1d1d1b;"/>
      <path d="M288.71,33.27v-3.37h.48l1.08,1.71c.25.4.45.75.61,1.1h.01c-.04-.46-.05-.87-.05-1.39v-1.41h.41v3.37h-.44l-1.07-1.71c-.24-.38-.46-.76-.63-1.13h-.01c.02.43.04.84.04,1.4v1.44h-.41Z" style="fill: #1d1d1b;"/>
      <path d="M293.72,31.69h-1.31v1.22h1.46v.37h-1.9v-3.37h1.82v.37h-1.39v1.07h1.31v.36Z" style="fill: #1d1d1b;"/>
      <path d="M295.21,33.01l1.87-2.74v-.02h-1.71v-.37h2.28v.27l-1.86,2.73v.02h1.89v.37h-2.46v-.26Z" style="fill: #1d1d1b;"/>
      <path d="M299.93,31.69h-1.31v1.22h1.46v.37h-1.9v-3.37h1.82v.37h-1.39v1.07h1.31v.36Z" style="fill: #1d1d1b;"/>
      <path d="M301.06,29.89v3.37h-.44v-3.37h.44Z" style="fill: #1d1d1b;"/>
      <path d="M301.79,33.27v-3.37h.48l1.08,1.71c.25.4.45.75.61,1.1h.01c-.04-.46-.05-.87-.05-1.39v-1.41h.41v3.37h-.44l-1.07-1.71c-.24-.38-.46-.76-.63-1.13h-.01c.02.43.04.84.04,1.4v1.44h-.41Z" style="fill: #1d1d1b;"/>
      <path d="M306.8,31.69h-1.31v1.22h1.46v.37h-1.9v-3.37h1.82v.37h-1.39v1.07h1.31v.36Z" style="fill: #1d1d1b;"/>
      <path d="M307.17,33.88c.11-.3.25-.83.3-1.2l.49-.05c-.12.43-.34.98-.48,1.22l-.32.03Z" style="fill: #1d1d1b;"/>
      <path d="M309.52,29.93c.21-.03.49-.06.84-.06.43,0,.75.1.95.28.19.16.3.41.3.71s-.09.55-.26.72c-.23.25-.61.37-1.03.37-.13,0-.25,0-.35-.03v1.35h-.44v-3.33ZM309.95,31.56c.09.02.21.04.36.04.53,0,.85-.26.85-.72s-.32-.66-.8-.66c-.19,0-.33.02-.41.04v1.31Z" style="fill: #1d1d1b;"/>
      <path d="M312.15,29.94c.22-.05.54-.07.84-.07.47,0,.77.09.98.28.17.15.27.38.27.64,0,.45-.28.74-.64.86v.02c.26.09.42.33.5.68.11.47.19.8.26.93h-.45c-.05-.1-.13-.39-.23-.81-.1-.47-.28-.64-.68-.66h-.41v1.46h-.44v-3.33ZM312.59,31.48h.45c.47,0,.76-.26.76-.64,0-.44-.32-.63-.78-.63-.21,0-.36.02-.43.04v1.23Z" style="fill: #1d1d1b;"/>
      <path d="M316.56,31.69h-1.31v1.22h1.46v.37h-1.9v-3.37h1.82v.37h-1.39v1.07h1.31v.36Z" style="fill: #1d1d1b;"/>
      <path d="M320.09,31.79c-.02-.47-.06-1.04-.05-1.46h-.01c-.12.4-.26.82-.43,1.28l-.6,1.64h-.33l-.55-1.61c-.16-.48-.3-.91-.39-1.31h-.01c-.01.42-.04.99-.06,1.49l-.09,1.45h-.42l.24-3.37h.56l.58,1.63c.14.42.26.79.34,1.14h.01c.09-.34.21-.71.36-1.14l.6-1.63h.56l.21,3.37h-.43l-.08-1.48Z" style="fill: #1d1d1b;"/>
      <path d="M321.68,29.89v3.37h-.44v-3.37h.44Z" style="fill: #1d1d1b;"/>
      <path d="M324.16,31.69h-1.31v1.22h1.46v.37h-1.9v-3.37h1.82v.37h-1.39v1.07h1.31v.36Z" style="fill: #1d1d1b;"/>
      <path d="M324.85,29.94c.22-.05.54-.07.84-.07.47,0,.77.09.98.28.17.15.27.38.27.64,0,.45-.28.74-.64.86v.02c.26.09.42.33.5.68.11.47.19.8.26.93h-.45c-.06-.1-.13-.39-.23-.81-.1-.47-.28-.64-.68-.66h-.41v1.46h-.44v-3.33ZM325.29,31.48h.45c.47,0,.76-.26.76-.64,0-.44-.32-.63-.78-.63-.21,0-.36.02-.43.04v1.23Z" style="fill: #1d1d1b;"/>
      <path d="M200.23,37.79c-.02-.47-.06-1.04-.05-1.46h-.02c-.12.4-.26.82-.43,1.28l-.6,1.64h-.33l-.55-1.61c-.16-.48-.3-.91-.39-1.31h0c0,.42-.04.99-.06,1.49l-.09,1.45h-.42l.23-3.37h.56l.58,1.63c.14.42.25.79.34,1.14h.02c.08-.34.21-.71.35-1.14l.6-1.63h.56l.21,3.37h-.43l-.08-1.48Z" style="fill: #1d1d1b;"/>
      <path d="M201.82,35.89v3.37h-.44v-3.37h.44Z" style="fill: #1d1d1b;"/>
      <path d="M202.56,39.27v-3.37h.48l1.08,1.71c.25.4.45.75.61,1.1h0c-.04-.46-.05-.87-.05-1.39v-1.41h.41v3.37h-.44l-1.07-1.71c-.24-.38-.46-.76-.63-1.13h-.02c.02.43.03.84.03,1.4v1.44h-.41Z" style="fill: #1d1d1b;"/>
      <path d="M206.26,35.89v3.37h-.44v-3.37h.44Z" style="fill: #1d1d1b;"/>
      <path d="M206.93,38.74c.2.12.48.22.78.22.45,0,.71-.24.71-.58,0-.32-.18-.5-.64-.67-.55-.19-.89-.48-.89-.96,0-.53.44-.92,1.09-.92.35,0,.6.08.75.17l-.12.36c-.11-.06-.34-.16-.64-.16-.46,0-.64.28-.64.51,0,.32.21.47.67.65.57.22.86.5.86.99,0,.52-.39.97-1.18.97-.33,0-.68-.1-.86-.22l.11-.37Z" style="fill: #1d1d1b;"/>
      <path d="M210.07,36.26h-1.03v-.37h2.5v.37h-1.03v3h-.44v-3Z" style="fill: #1d1d1b;"/>
      <path d="M211.89,35.94c.22-.05.54-.07.84-.07.47,0,.77.09.98.28.17.15.27.38.27.64,0,.45-.28.74-.64.86v.02c.26.09.42.33.5.68.11.47.19.8.26.93h-.45c-.05-.1-.13-.39-.23-.81-.1-.47-.28-.64-.68-.66h-.41v1.46h-.44v-3.33ZM212.33,37.48h.45c.47,0,.76-.26.76-.64,0-.44-.32-.63-.78-.63-.21,0-.36.02-.43.04v1.23Z" style="fill: #1d1d1b;"/>
      <path d="M216.3,37.69h-1.31v1.22h1.46v.37h-1.9v-3.37h1.82v.37h-1.39v1.07h1.31v.36Z" style="fill: #1d1d1b;"/>
      <path d="M216.67,39.88c.11-.3.25-.83.3-1.2l.49-.05c-.11.43-.33.98-.48,1.22l-.32.03Z" style="fill: #1d1d1b;"/>
      <path d="M221.86,37.79c-.02-.47-.06-1.04-.05-1.46h-.01c-.12.4-.26.82-.43,1.28l-.6,1.64h-.33l-.55-1.61c-.16-.48-.3-.91-.39-1.31h-.01c-.01.42-.04.99-.06,1.49l-.09,1.45h-.42l.24-3.37h.56l.58,1.63c.14.42.26.79.34,1.14h.01c.09-.34.21-.71.36-1.14l.6-1.63h.56l.21,3.37h-.43l-.08-1.48Z" style="fill: #1d1d1b;"/>
      <path d="M223.45,35.89v3.37h-.44v-3.37h.44Z" style="fill: #1d1d1b;"/>
      <path d="M224.18,39.27v-3.37h.48l1.08,1.71c.25.4.45.75.61,1.1h.01c-.04-.46-.05-.87-.05-1.39v-1.41h.41v3.37h-.44l-1.07-1.71c-.24-.38-.46-.76-.63-1.13h-.01c.02.43.04.84.04,1.4v1.44h-.41Z" style="fill: #1d1d1b;"/>
      <path d="M227.88,35.89v3.37h-.44v-3.37h.44Z" style="fill: #1d1d1b;"/>
      <path d="M228.55,38.74c.2.12.48.22.78.22.45,0,.71-.24.71-.58,0-.32-.18-.5-.64-.67-.55-.19-.89-.48-.89-.96,0-.53.44-.92,1.09-.92.35,0,.6.08.75.17l-.12.36c-.11-.06-.34-.16-.64-.16-.46,0-.64.28-.64.51,0,.32.21.47.67.65.57.22.86.5.86.99,0,.52-.39.97-1.18.97-.33,0-.68-.1-.86-.22l.11-.37Z" style="fill: #1d1d1b;"/>
      <path d="M231.7,36.26h-1.03v-.37h2.5v.37h-1.03v3h-.44v-3Z" style="fill: #1d1d1b;"/>
      <path d="M233.51,35.94c.22-.05.54-.07.84-.07.47,0,.77.09.98.28.17.15.27.38.27.64,0,.45-.28.74-.64.86v.02c.26.09.42.33.5.68.11.47.19.8.26.93h-.45c-.06-.1-.13-.39-.23-.81-.1-.47-.28-.64-.68-.66h-.41v1.46h-.44v-3.33ZM233.95,37.48h.45c.47,0,.76-.26.76-.64,0-.44-.32-.63-.78-.63-.21,0-.36.02-.43.04v1.23Z" style="fill: #1d1d1b;"/>
      <path d="M237.93,37.69h-1.31v1.22h1.46v.37h-1.9v-3.37h1.82v.37h-1.39v1.07h1.31v.36Z" style="fill: #1d1d1b;"/>
      <path d="M239.65,35.94c.27-.04.58-.07.93-.07.63,0,1.07.15,1.37.42.3.28.48.67.48,1.21s-.17,1-.49,1.31c-.32.32-.84.49-1.49.49-.31,0-.57-.01-.79-.04v-3.32ZM240.09,38.92c.11.02.27.02.44.02.93,0,1.44-.52,1.44-1.43,0-.8-.45-1.3-1.37-1.3-.23,0-.4.02-.51.05v2.66Z" style="fill: #1d1d1b;"/>
      <path d="M244.7,37.69h-1.31v1.22h1.46v.37h-1.9v-3.37h1.82v.37h-1.39v1.07h1.31v.36Z" style="fill: #1d1d1b;"/>
      <path d="M246.42,35.89h.44v3.01h1.44v.37h-1.88v-3.37Z" style="fill: #1d1d1b;"/>
      <path d="M248.78,35.84c-.12.42-.33.96-.47,1.19l-.28.04c.11-.3.24-.82.29-1.18l.46-.04Z" style="fill: #1d1d1b;"/>
      <path d="M251,37.69h-1.31v1.22h1.46v.37h-1.9v-3.37h1.82v.37h-1.39v1.07h1.31v.36Z" style="fill: #1d1d1b;"/>
      <path d="M254.05,39.16c-.16.08-.48.16-.89.16-.95,0-1.67-.6-1.67-1.71s.72-1.77,1.76-1.77c.42,0,.69.09.8.15l-.1.36c-.17-.08-.4-.14-.68-.14-.79,0-1.32.51-1.32,1.39,0,.83.48,1.36,1.3,1.36.27,0,.54-.06.71-.14l.09.35Z" style="fill: #1d1d1b;"/>
      <path d="M257.34,37.55c0,1.16-.71,1.78-1.57,1.78s-1.52-.69-1.52-1.71.67-1.77,1.57-1.77,1.52.71,1.52,1.71ZM254.72,37.6c0,.72.39,1.37,1.08,1.37s1.08-.64,1.08-1.4c0-.67-.35-1.37-1.08-1.37s-1.08.67-1.08,1.41Z" style="fill: #1d1d1b;"/>
      <path d="M257.88,39.27v-3.37h.48l1.08,1.71c.25.4.45.75.61,1.1h.01c-.04-.46-.05-.87-.05-1.39v-1.41h.41v3.37h-.44l-1.07-1.71c-.24-.38-.46-.76-.63-1.13h-.01c.02.43.04.84.04,1.4v1.44h-.41Z" style="fill: #1d1d1b;"/>
      <path d="M264.03,37.55c0,1.16-.71,1.78-1.57,1.78s-1.52-.69-1.52-1.71.67-1.77,1.57-1.77,1.52.71,1.52,1.71ZM261.41,37.6c0,.72.39,1.37,1.08,1.37s1.08-.64,1.08-1.4c0-.67-.35-1.37-1.08-1.37s-1.08.67-1.08,1.41Z" style="fill: #1d1d1b;"/>
      <path d="M267.41,37.79c-.02-.47-.06-1.04-.05-1.46h-.01c-.12.4-.26.82-.43,1.28l-.6,1.64h-.33l-.55-1.61c-.16-.48-.3-.91-.39-1.31h-.01c-.01.42-.04.99-.06,1.49l-.09,1.45h-.42l.24-3.37h.56l.58,1.63c.14.42.26.79.34,1.14h.01c.09-.34.21-.71.36-1.14l.6-1.63h.56l.21,3.37h-.43l-.08-1.48Z" style="fill: #1d1d1b;"/>
      <path d="M268.99,35.89v3.37h-.44v-3.37h.44Z" style="fill: #1d1d1b;"/>
      <path d="M271.48,37.69h-1.31v1.22h1.46v.37h-1.9v-3.37h1.82v.37h-1.39v1.07h1.31v.36Z" style="fill: #1d1d1b;"/>
      <path d="M274.95,37.69h-1.31v1.22h1.46v.37h-1.9v-3.37h1.82v.37h-1.39v1.07h1.31v.36Z" style="fill: #1d1d1b;"/>
      <path d="M276.35,36.26h-1.03v-.37h2.5v.37h-1.03v3h-.44v-3Z" style="fill: #1d1d1b;"/>
      <path d="M279.21,35.94c.27-.04.58-.07.93-.07.63,0,1.07.15,1.37.42.3.28.48.67.48,1.21s-.17,1-.49,1.31c-.32.32-.84.49-1.49.49-.31,0-.57-.01-.79-.04v-3.32ZM279.64,38.92c.11.02.27.02.44.02.93,0,1.44-.52,1.44-1.43,0-.8-.45-1.3-1.37-1.3-.23,0-.4.02-.51.05v2.66Z" style="fill: #1d1d1b;"/>
      <path d="M284.26,37.69h-1.31v1.22h1.46v.37h-1.9v-3.37h1.82v.37h-1.39v1.07h1.31v.36Z" style="fill: #1d1d1b;"/>
      <path d="M284.89,38.74c.2.12.48.22.78.22.45,0,.71-.24.71-.58,0-.32-.18-.5-.64-.67-.55-.19-.89-.48-.89-.96,0-.53.44-.92,1.09-.92.35,0,.6.08.75.17l-.12.36c-.11-.06-.34-.16-.64-.16-.46,0-.64.28-.64.51,0,.32.21.47.67.65.57.22.86.5.86.99,0,.52-.39.97-1.18.97-.33,0-.68-.1-.86-.22l.11-.37Z" style="fill: #1d1d1b;"/>
      <path d="M288.42,35.89h1.82v.37h-1.38v1.12h1.28v.36h-1.28v1.53h-.44v-3.37Z" style="fill: #1d1d1b;"/>
      <path d="M291.27,35.89v3.37h-.44v-3.37h.44Z" style="fill: #1d1d1b;"/>
      <path d="M292,39.27v-3.37h.48l1.08,1.71c.25.4.45.75.61,1.1h0c-.04-.46-.05-.87-.05-1.39v-1.41h.41v3.37h-.44l-1.07-1.71c-.24-.38-.46-.76-.63-1.13h-.02c.02.43.03.84.03,1.4v1.44h-.41Z" style="fill: #1d1d1b;"/>
      <path d="M295.81,38.21l-.35,1.06h-.45l1.15-3.37h.53l1.15,3.37h-.47l-.36-1.06h-1.2ZM296.92,37.87l-.33-.97c-.08-.22-.12-.42-.18-.62h0c-.05.2-.1.41-.17.61l-.33.98h1.02Z" style="fill: #1d1d1b;"/>
      <path d="M298.3,39.27v-3.37h.48l1.08,1.71c.25.4.45.75.61,1.1h0c-.04-.46-.05-.87-.05-1.39v-1.41h.41v3.37h-.44l-1.07-1.71c-.24-.38-.46-.76-.63-1.13h-.02c.02.43.03.84.03,1.4v1.44h-.41Z" style="fill: #1d1d1b;"/>
      <path d="M303.93,39.16c-.16.08-.48.16-.89.16-.95,0-1.67-.6-1.67-1.71s.72-1.77,1.76-1.77c.42,0,.69.09.8.15l-.1.36c-.17-.08-.4-.14-.68-.14-.79,0-1.32.51-1.32,1.39,0,.83.48,1.36,1.3,1.36.27,0,.54-.06.71-.14l.09.35Z" style="fill: #1d1d1b;"/>
      <path d="M306.19,37.69h-1.31v1.22h1.46v.37h-1.9v-3.37h1.82v.37h-1.39v1.07h1.31v.36Z" style="fill: #1d1d1b;"/>
      <path d="M306.82,38.74c.2.12.48.22.78.22.45,0,.71-.24.71-.58,0-.32-.18-.5-.64-.67-.55-.19-.89-.48-.89-.96,0-.53.44-.92,1.09-.92.35,0,.6.08.75.17l-.12.36c-.11-.06-.34-.16-.64-.16-.46,0-.64.28-.64.51,0,.32.21.47.67.65.57.22.86.5.86.99,0,.52-.39.97-1.18.97-.33,0-.68-.1-.86-.22l.11-.37Z" style="fill: #1d1d1b;"/>
    </g>
    <g>
      <rect x="166.69" y="48.16" width="170.6" height="10.09" style="fill: none;"/>
      <path d="M181.12,52.61v-4.2h.78v3.54h2.2v.66h-2.98Z" style="fill: #086e31;"/>
      <path d="M184.69,52.61v-4.2h3.07v.65h-2.29v2.89h2.37v.65h-3.15ZM185.41,50.8v-.64h2.09v.64h-2.09Z" style="fill: #086e31;"/>
      <path d="M190.3,52.61v-4.2h.64l1.84,3.07h-.34l1.81-3.07h.64v4.2s-.73,0-.73,0v-3.04s.15,0,.15,0l-1.54,2.56h-.35l-1.56-2.56h.18v3.04h-.74Z" style="fill: #086e31;"/>
      <path d="M196,52.61v-4.2h.78v4.2h-.78Z" style="fill: #086e31;"/>
      <path d="M197.89,52.61v-4.2h.64l2.63,3.23h-.32v-3.23h.77v4.2h-.64l-2.63-3.23h.32v3.23h-.77Z" style="fill: #086e31;"/>
      <path d="M202.72,52.61v-4.2h.78v4.2h-.78Z" style="fill: #086e31;"/>
      <path d="M205.9,52.67c-.33,0-.64-.05-.94-.14-.3-.09-.54-.21-.71-.36l.27-.61c.17.13.38.24.62.33.25.09.5.13.76.13.22,0,.4-.02.53-.07.14-.05.24-.11.3-.19.06-.08.1-.17.1-.28,0-.13-.05-.23-.14-.31-.09-.08-.21-.14-.36-.19s-.31-.09-.49-.13c-.18-.04-.36-.09-.53-.14-.18-.05-.34-.12-.49-.21s-.27-.2-.36-.35c-.09-.14-.14-.33-.14-.55s.06-.44.18-.63.31-.34.56-.46c.25-.11.57-.17.95-.17.25,0,.5.03.75.1.25.06.46.16.65.28l-.25.61c-.19-.11-.38-.19-.58-.25-.2-.05-.39-.08-.58-.08-.22,0-.39.03-.52.08-.13.05-.23.12-.29.2s-.09.18-.09.29c0,.13.04.23.13.31s.21.14.35.18.31.09.49.13c.18.04.36.09.54.14.18.05.34.12.49.2.15.08.26.2.35.34.09.14.13.33.13.55s-.06.43-.18.62-.31.34-.56.46c-.25.11-.57.17-.95.17Z" style="fill: #086e31;"/>
      <path d="M209.14,52.61v-3.54h-1.39v-.66h3.56v.66h-1.39v3.54h-.78Z" style="fill: #086e31;"/>
      <path d="M211.87,52.61v-4.2h1.72c.56,0,1,.13,1.32.4.32.26.48.63.48,1.1,0,.31-.07.57-.22.79-.14.22-.35.39-.61.51-.27.12-.58.18-.96.18h-1.3l.35-.35v1.58h-.78ZM212.65,51.12l-.35-.37h1.26c.34,0,.6-.07.78-.22.17-.15.26-.35.26-.62s-.09-.47-.26-.62c-.17-.14-.43-.22-.78-.22h-1.26l.35-.38v2.43ZM214.62,52.61l-1.06-1.52h.83l1.07,1.52h-.84Z" style="fill: #086e31;"/>
      <path d="M216.22,52.61v-4.2h3.07v.65h-2.29v2.89h2.37v.65h-3.15ZM216.94,50.8v-.64h2.09v.64h-2.09Z" style="fill: #086e31;"/>
      <path d="M221.84,52.61v-4.2h1.84c.46,0,.86.09,1.2.26.34.18.61.42.8.73.19.31.29.68.29,1.1s-.1.79-.29,1.1c-.19.31-.46.56-.8.73-.34.18-.74.26-1.2.26h-1.84ZM222.62,51.95h1.02c.31,0,.58-.06.82-.18.23-.12.41-.29.54-.5.13-.22.19-.47.19-.76s-.06-.54-.19-.76-.3-.38-.54-.5c-.23-.12-.5-.18-.82-.18h-1.02v2.88Z" style="fill: #086e31;"/>
      <path d="M226.77,52.61v-4.2h3.07v.65h-2.29v2.89h2.37v.65h-3.15ZM227.49,50.8v-.64h2.09v.64h-2.09Z" style="fill: #086e31;"/>
      <path d="M232.38,52.61v-4.2h.78v3.54h2.2v.66h-2.98Z" style="fill: #086e31;"/>
      <path d="M235.36,52.61l1.89-4.2h.77l1.9,4.2h-.82l-1.63-3.79h.31l-1.62,3.79h-.8ZM236.23,51.64l.21-.61h2.27l.21.61h-2.69Z" style="fill: #086e31;"/>
      <path d="M242.69,52.67c-.27,0-.51-.05-.74-.16s-.41-.25-.56-.45l.44-.53c.12.16.24.28.38.36.14.08.29.12.45.12.44,0,.65-.26.65-.77v-2.17h-1.49v-.65h2.27v2.78c0,.5-.12.87-.36,1.11-.24.24-.59.37-1.05.37Z" style="fill: #086e31;"/>
      <path d="M245.17,52.61v-4.2h3.07v.65h-2.29v2.89h2.37v.65h-3.15ZM245.89,50.8v-.64h2.09v.64h-2.09Z" style="fill: #086e31;"/>
      <path d="M250.97,52.67c-.58,0-1.03-.16-1.35-.49-.33-.32-.49-.79-.49-1.4v-2.37h.78v2.34c0,.43.09.75.28.94s.45.29.79.29.6-.1.79-.29c.18-.2.28-.51.28-.94v-2.34h.77v2.37c0,.61-.16,1.08-.49,1.4-.33.32-.77.49-1.35.49Z" style="fill: #086e31;"/>
      <path d="M253.87,52.61v-4.2h.64l2.63,3.23h-.32v-3.23h.77v4.2h-.64l-2.63-3.23h.32v3.23h-.77Z" style="fill: #086e31;"/>
      <path d="M258.7,52.61v-4.2h3.07v.65h-2.29v2.89h2.37v.65h-3.15ZM259.42,50.8v-.64h2.09v.64h-2.09Z" style="fill: #086e31;"/>
      <path d="M263.99,52.67c-.33,0-.64-.05-.94-.14-.3-.09-.54-.21-.71-.36l.27-.61c.17.13.38.24.62.33.25.09.5.13.76.13.22,0,.4-.02.53-.07.14-.05.24-.11.3-.19.06-.08.1-.17.1-.28,0-.13-.05-.23-.14-.31-.09-.08-.21-.14-.36-.19s-.31-.09-.49-.13c-.18-.04-.36-.09-.53-.14-.18-.05-.34-.12-.49-.21s-.27-.2-.36-.35c-.09-.14-.14-.33-.14-.55s.06-.44.18-.63.31-.34.56-.46c.25-.11.57-.17.95-.17.25,0,.5.03.75.1.25.06.46.16.65.28l-.25.61c-.19-.11-.38-.19-.58-.25-.2-.05-.39-.08-.58-.08-.22,0-.39.03-.52.08-.13.05-.23.12-.29.2s-.09.18-.09.29c0,.13.04.23.13.31s.21.14.35.18.31.09.49.13c.18.04.36.09.54.14.18.05.34.12.49.2.15.08.26.2.35.34.09.14.13.33.13.55s-.06.43-.18.62-.31.34-.56.46c-.25.11-.57.17-.95.17Z" style="fill: #086e31;"/>
      <path d="M267.73,52.67c-.33,0-.64-.05-.94-.14-.3-.09-.54-.21-.71-.36l.27-.61c.17.13.38.24.62.33.25.09.5.13.76.13.22,0,.4-.02.53-.07.14-.05.24-.11.3-.19.06-.08.1-.17.1-.28,0-.13-.05-.23-.14-.31-.09-.08-.21-.14-.36-.19s-.31-.09-.49-.13c-.18-.04-.36-.09-.53-.14-.18-.05-.34-.12-.49-.21s-.27-.2-.36-.35c-.09-.14-.14-.33-.14-.55s.06-.44.18-.63.31-.34.56-.46c.25-.11.57-.17.95-.17.25,0,.5.03.75.1.25.06.46.16.65.28l-.25.61c-.19-.11-.38-.19-.58-.25-.2-.05-.39-.08-.58-.08-.22,0-.39.03-.52.08-.13.05-.23.12-.29.2s-.09.18-.09.29c0,.13.04.23.13.31s.21.14.35.18.31.09.49.13c.18.04.36.09.54.14.18.05.34.12.49.2.15.08.26.2.35.34.09.14.13.33.13.55s-.06.43-.18.62-.31.34-.56.46c-.25.11-.57.17-.95.17Z" style="fill: #086e31;"/>
      <path d="M270.17,52.61v-4.2h3.07v.65h-2.29v2.89h2.37v.65h-3.15ZM270.89,50.8v-.64h2.09v.64h-2.09Z" style="fill: #086e31;"/>
      <path d="M275.79,52.61v-4.2h3.07v.65h-2.29v2.89h2.37v.65h-3.15ZM276.51,50.8v-.64h2.09v.64h-2.09Z" style="fill: #086e31;"/>
      <path d="M280.63,52.61v-3.54h-1.39v-.66h3.56v.66h-1.39v3.54h-.78Z" style="fill: #086e31;"/>
      <path d="M284.99,52.61v-4.2h1.84c.46,0,.86.09,1.2.26.34.18.61.42.8.73.19.31.29.68.29,1.1s-.1.79-.29,1.1c-.19.31-.46.56-.8.73-.34.18-.74.26-1.2.26h-1.84ZM285.77,51.95h1.02c.31,0,.58-.06.82-.18.23-.12.41-.29.54-.5.13-.22.19-.47.19-.76s-.06-.54-.19-.76-.3-.38-.54-.5c-.23-.12-.5-.18-.82-.18h-1.02v2.88Z" style="fill: #086e31;"/>
      <path d="M289.91,52.61v-4.2h3.07v.65h-2.29v2.89h2.37v.65h-3.15ZM290.63,50.8v-.64h2.09v.64h-2.09Z" style="fill: #086e31;"/>
      <path d="M295.21,52.67c-.33,0-.64-.05-.94-.14-.3-.09-.54-.21-.71-.36l.27-.61c.17.13.38.24.62.33.25.09.5.13.76.13.22,0,.4-.02.53-.07.14-.05.24-.11.3-.19.06-.08.1-.17.1-.28,0-.13-.05-.23-.14-.31-.09-.08-.21-.14-.36-.19s-.31-.09-.49-.13c-.18-.04-.36-.09-.53-.14-.18-.05-.34-.12-.49-.21s-.27-.2-.36-.35c-.09-.14-.14-.33-.14-.55s.06-.44.18-.63.31-.34.56-.46c.25-.11.57-.17.95-.17.25,0,.5.03.75.1.25.06.46.16.65.28l-.25.61c-.19-.11-.38-.19-.58-.25-.2-.05-.39-.08-.58-.08-.22,0-.39.03-.52.08-.13.05-.23.12-.29.2s-.09.18-.09.29c0,.13.04.23.13.31s.21.14.35.18.31.09.49.13c.18.04.36.09.54.14.18.05.34.12.49.2.15.08.26.2.35.34.09.14.13.33.13.55s-.06.43-.18.62-.31.34-.56.46c-.25.11-.57.17-.95.17Z" style="fill: #086e31;"/>
      <path d="M300.58,52.67c-.33,0-.64-.05-.94-.14-.3-.09-.54-.21-.71-.36l.27-.61c.17.13.38.24.62.33.25.09.5.13.76.13.22,0,.4-.02.53-.07.14-.05.24-.11.3-.19.06-.08.1-.17.1-.28,0-.13-.05-.23-.14-.31-.09-.08-.21-.14-.36-.19s-.31-.09-.49-.13c-.18-.04-.36-.09-.53-.14-.18-.05-.34-.12-.49-.21s-.27-.2-.36-.35c-.09-.14-.14-.33-.14-.55s.06-.44.18-.63.31-.34.56-.46c.25-.11.57-.17.95-.17.25,0,.5.03.75.1.25.06.46.16.65.28l-.25.61c-.19-.11-.38-.19-.58-.25-.2-.05-.39-.08-.58-.08-.22,0-.39.03-.52.08-.13.05-.23.12-.29.2s-.09.18-.09.29c0,.13.04.23.13.31s.21.14.35.18.31.09.49.13c.18.04.36.09.54.14.18.05.34.12.49.2.15.08.26.2.35.34.09.14.13.33.13.55s-.06.43-.18.62-.31.34-.56.46c-.25.11-.57.17-.95.17Z" style="fill: #086e31;"/>
      <path d="M303.02,52.61v-4.2h1.73c.37,0,.69.06.96.18s.47.29.61.52c.14.22.22.49.22.8s-.07.57-.22.8c-.14.22-.35.4-.61.52s-.58.18-.96.18h-1.3l.35-.37v1.58h-.78ZM303.8,51.12l-.35-.38h1.26c.34,0,.6-.07.78-.22.17-.15.26-.35.26-.62s-.09-.47-.26-.62c-.17-.14-.43-.22-.78-.22h-1.26l.35-.38v2.43Z" style="fill: #086e31;"/>
      <path d="M309.31,52.67c-.33,0-.63-.05-.91-.16s-.52-.26-.72-.45c-.2-.19-.36-.42-.47-.68-.11-.26-.17-.55-.17-.86s.06-.6.17-.86c.11-.26.27-.49.47-.68.2-.19.44-.35.72-.45s.58-.16.9-.16.63.05.9.16c.27.11.51.26.72.45s.36.42.47.68c.11.26.17.55.17.86s-.06.6-.17.86c-.11.26-.27.49-.47.68-.2.19-.44.34-.72.45-.27.11-.57.16-.9.16ZM309.31,51.99c.21,0,.41-.04.59-.11.18-.07.34-.17.47-.31.13-.13.23-.29.31-.47.07-.18.11-.38.11-.59s-.04-.41-.11-.59c-.07-.18-.18-.33-.31-.47-.13-.13-.29-.24-.47-.31-.18-.07-.38-.11-.59-.11s-.41.04-.58.11c-.18.07-.33.17-.47.31s-.24.29-.31.47c-.07.18-.11.38-.11.59s.04.41.11.59c.07.18.18.34.31.47.13.13.29.24.47.31.18.07.38.11.59.11Z" style="fill: #086e31;"/>
      <path d="M312.37,52.61v-4.2h1.72c.56,0,1,.13,1.32.4.32.26.48.63.48,1.1,0,.31-.07.57-.22.79-.14.22-.35.39-.61.51-.27.12-.58.18-.96.18h-1.3l.35-.35v1.58h-.78ZM313.15,51.12l-.35-.37h1.26c.34,0,.6-.07.78-.22.17-.15.26-.35.26-.62s-.09-.47-.26-.62c-.17-.14-.43-.22-.78-.22h-1.26l.35-.38v2.43ZM315.11,52.61l-1.06-1.52h.83l1.07,1.52h-.84Z" style="fill: #086e31;"/>
      <path d="M317.51,52.61v-3.54h-1.39v-.66h3.56v.66h-1.39v3.54h-.78Z" style="fill: #086e31;"/>
      <path d="M321.5,52.67c-.33,0-.64-.05-.94-.14-.3-.09-.54-.21-.71-.36l.27-.61c.17.13.38.24.62.33.25.09.5.13.76.13.22,0,.4-.02.53-.07.14-.05.24-.11.3-.19.06-.08.1-.17.1-.28,0-.13-.05-.23-.14-.31-.09-.08-.21-.14-.36-.19s-.31-.09-.49-.13c-.18-.04-.36-.09-.53-.14-.18-.05-.34-.12-.49-.21s-.27-.2-.36-.35c-.09-.14-.14-.33-.14-.55s.06-.44.18-.63.31-.34.56-.46c.25-.11.57-.17.95-.17.25,0,.5.03.75.1.25.06.46.16.65.28l-.25.61c-.19-.11-.38-.19-.58-.25-.2-.05-.39-.08-.58-.08-.22,0-.39.03-.52.08-.13.05-.23.12-.29.2s-.09.18-.09.29c0,.13.04.23.13.31s.21.14.35.18.31.09.49.13c.18.04.36.09.54.14.18.05.34.12.49.2.15.08.26.2.35.34.09.14.13.33.13.55s-.06.43-.18.62-.31.34-.56.46c-.25.11-.57.17-.95.17Z" style="fill: #086e31;"/>
    </g>
    <rect x="216.25" y="59.24" width="82.51" height=".63" style="fill: #ec751d; stroke: #f39200; stroke-miterlimit: 10; stroke-width: 2px;"/>
    <circle cx="256.52" cy="59.58" r="2.92" style="fill: #ec751d; stroke: #ec751d; stroke-miterlimit: 10; stroke-width: 2px;"/>
    <path d="M513.35,199.39h-130.99c0,4.18-4.19,7.58-9.35,7.58s-9.35-3.39-9.35-7.58H30.21c0,13.52-13.53,24.48-30.21,24.48v15.01c6.73,0,12.19,4.42,12.19,9.88s-5.46,9.88-12.19,9.88v10.55c6.73,0,12.19,4.42,12.19,9.88s-5.46,9.88-12.19,9.88v10.55c6.73,0,12.19,4.42,12.19,9.88s-5.46,9.88-12.19,9.88v15.01c16.68,0,30.21,10.96,30.21,24.48h333.45c0-4.18,4.19-7.58,9.35-7.58s9.35,3.39,9.35,7.58h130.99c15.76,0,28.54-10.35,28.54-23.12v-113.09c0-12.77-12.78-23.12-28.54-23.12ZM374.91,345.97c0,.55-.55,1-1.23,1s-1.23-.45-1.23-1v-1.83c0-.55.55-1,1.23-1s1.23.45,1.23,1v1.83ZM374.91,338.14c0,.55-.55,1-1.23,1s-1.23-.45-1.23-1v-6c0-.55.55-1,1.23-1s1.23.45,1.23,1v6ZM374.91,326.14c0,.55-.55,1-1.23,1s-1.23-.45-1.23-1v-6c0-.55.55-1,1.23-1s1.23.45,1.23,1v6ZM374.91,314.14c0,.55-.55,1-1.23,1s-1.23-.45-1.23-1v-6c0-.55.55-1,1.23-1s1.23.45,1.23,1v6ZM374.91,302.14c0,.55-.55,1-1.23,1s-1.23-.45-1.23-1v-6c0-.55.55-1,1.23-1s1.23.45,1.23,1v6ZM374.91,290.14c0,.55-.55,1-1.23,1s-1.23-.45-1.23-1v-6c0-.55.55-1,1.23-1s1.23.45,1.23,1v6ZM374.91,278.14c0,.55-.55,1-1.23,1s-1.23-.45-1.23-1v-6c0-.55.55-1,1.23-1s1.23.45,1.23,1v6ZM374.91,266.14c0,.55-.55,1-1.23,1s-1.23-.45-1.23-1v-6c0-.55.55-1,1.23-1s1.23.45,1.23,1v6ZM374.91,254.14c0,.55-.55,1-1.23,1s-1.23-.45-1.23-1v-6c0-.55.55-1,1.23-1s1.23.45,1.23,1v6ZM374.91,242.14c0,.55-.55,1-1.23,1s-1.23-.45-1.23-1v-6c0-.55.55-1,1.23-1s1.23.45,1.23,1v6ZM374.91,230.14c0,.55-.55,1-1.23,1s-1.23-.45-1.23-1v-6c0-.55.55-1,1.23-1s1.23.45,1.23,1v6ZM374.91,218.14c0,.55-.55,1-1.23,1s-1.23-.45-1.23-1v-6c0-.55.55-1,1.23-1s1.23.45,1.23,1v6Z" style="fill: #fcfcfc;"/>
  </g>
</svg>